<?xml version="1.0" encoding="utf-8"?>
<!-- Generator: Adobe Illustrator 25.2.0, SVG Export Plug-In . SVG Version: 6.00 Build 0)  -->
<svg version="1.1" id="Layer_1" xmlns="http://www.w3.org/2000/svg" xmlns:xlink="http://www.w3.org/1999/xlink" x="0px" y="0px"
	 viewBox="0 0 1400.9 223.3" style="enable-background:new 0 0 1400.9 223.3;" xml:space="preserve">
<style type="text/css">
	.st0{fill:#FFFFFF;}
</style>
<g>
	<path class="st0" d="M230,12.1h-55c-3.2,0-5.8,2.6-5.8,5.8v190.9c0,3.2,2.6,5.8,5.8,5.8l55,0c3.2,0,5.8-2.6,5.8-5.8V17.8
		C235.8,14.7,233.2,12.1,230,12.1z M206.1,44.3v138c0,1-0.9,1.7-2,1.7h-3.2c-1.1,0-2-0.8-2-1.7v-138c0-1,0.9-1.7,2-1.7h3.2
		C205.2,42.6,206.1,43.3,206.1,44.3z"/>
	<path class="st0" d="M146.3,12.1H85.5v202.4h29.7v-92.3h4.8c1.3,0,2.4,0.9,2.4,2v90.2H152v-94.3c0-1.2-0.3-2.4-0.9-3.5
		c-0.7-1.3-1.8-2.4-3.1-3.3c-1.2-0.8-2.5-1.4-4.1-1.9c1.5-0.5,2.9-1.1,4.1-1.9c1.4-0.9,2.4-2,3.1-3.3c0.6-1,0.9-2.2,0.9-3.5V17.8
		C152,14.7,149.5,12.1,146.3,12.1z M115.2,42.6h5.4c1,0,1.8,0.7,1.8,1.5v45.6c0,1.2-1.2,3.4-2.4,3.4h-4.8V42.6z"/>
	<path class="st0" d="M846.8,12.1h-60.8v202.4h29.7v-92.3h4.8c1.3,0,2.4,0.9,2.4,2v90.2h29.7v-94.3c0-1.2-0.3-2.4-0.9-3.5
		c-0.7-1.3-1.8-2.4-3.1-3.3c-1.2-0.8-2.5-1.4-4.1-1.9c1.5-0.5,2.9-1.1,4.1-1.9c1.4-0.9,2.4-2,3.1-3.3c0.6-1,0.9-2.2,0.9-3.5V17.8
		C852.6,14.7,850,12.1,846.8,12.1z M822.9,44.1v45.6c0,1.2-1.2,3.4-2.4,3.4h-4.8V42.6h5.4C822.1,42.6,822.9,43.2,822.9,44.1z"/>
	<path class="st0" d="M930.6,12.1h-55c-3.2,0-5.8,2.6-5.8,5.8v190.9c0,3.2,2.6,5.8,5.8,5.8l55,0c3.2,0,5.8-2.6,5.8-5.8V17.8
		C936.3,14.7,933.7,12.1,930.6,12.1z M906.7,44.3v138c0,1-0.9,1.7-2,1.7h-3.2c-1.1,0-2-0.8-2-1.7v-138c0-1,0.9-1.7,2-1.7h3.2
		C905.7,42.6,906.7,43.3,906.7,44.3z"/>
	<path class="st0" d="M1019.3,12.2c-0.4,0-10.1-0.2-10.8-0.2h-18v170.2c0,0.9-0.9,1.7-2,1.7h-3.2c-1.1,0-2-0.8-2-1.7V12.1h-29.8
		l0,10.4l0,186.3c0,1.5,0.6,3,1.7,4.1s2.5,1.7,4.1,1.7l47.4,0l7.7,0c3.2,0,5.8-2.6,5.8-5.8l0-196.5L1019.3,12.2z"/>
	<path class="st0" d="M1313.5,12.2c-0.4,0-10.1-0.2-10.8-0.2h-18v170.2c0,0.9-0.9,1.7-2,1.7h-3.2c-1.1,0-2-0.8-2-1.7V12.1h-29.8
		l0,10.4l0,186.3c0,3.2,2.6,5.8,5.8,5.8h55c1.5,0,3-0.6,4.1-1.7s1.7-2.5,1.7-4.1l0-196.5L1313.5,12.2z"/>
	<path class="st0" d="M350.5,12.1h-33.3c-1.8,0-3.5,0.2-5.1,0.7c-1.6,0.5-3,1.1-4.2,1.9c-1.2,0.8-2.2,1.8-2.9,2.9
		c-0.1,0.2-0.3,0.4-0.4,0.6c-0.1-0.2-0.2-0.4-0.4-0.6c-0.7-1.1-1.7-2.1-2.9-2.9c-1.2-0.8-2.6-1.5-4.2-1.9c-1.6-0.5-3.3-0.7-5.1-0.7
		h-33.3c-3.2,0-5.8,2.6-5.8,5.8v196.6h29.6V46.2c0-2,1.9-3.6,4.2-3.6h3v171.9h29.7V42.6h3c2.3,0,4.2,1.6,4.2,3.6v168.3h29.7V17.8
		C356.3,14.7,353.7,12.1,350.5,12.1z M304.6,21.4L304.6,21.4L304.6,21.4L304.6,21.4z"/>
	<path class="st0" d="M532.8,92.1c0,0.6-0.6,1.2-1.4,1.2h-4.5c-0.8,0-1.4-0.5-1.4-1.2v-80h-29.7v202.4h29.7v-91.1
		c0-0.6,0.6-1.2,1.4-1.2h4.5c0.8,0,1.4,0.5,1.4,1.2v91.1h29.7V12.1h-29.7V92.1z"/>
	<path class="st0" d="M609.1,122.2h37v-29h-37V42.6h37.1l0-30.5h-60.8c-3.2,0-5.8,2.6-5.8,5.8v190.9c0,3.2,2.6,5.8,5.8,5.8h60.8
		v-29.1h-37.1V122.2z"/>
	<path class="st0" d="M1186.1,12.1h-60.8v202.4h60.8c3.2,0,5.8-2.6,5.8-5.8V17.8C1191.9,14.7,1189.3,12.1,1186.1,12.1z M1162.3,46.1
		v135.6c0,1.3-1.2,2.3-2.7,2.3h-4.5V42.6h3.2C1160.5,42.6,1162.3,44.1,1162.3,46.1z"/>
	<path class="st0" d="M1392.3,12.1h-60.9v202.4h29.8v-90.1h31.1c3.2,0,5.8-2.6,5.8-5.8V17.8C1398,14.7,1395.5,12.1,1392.3,12.1z
		 M1368.4,46.7v40.9c0,2.2-2.1,5.6-4.8,5.6h-2.5V42.6h2.5C1366.3,42.6,1368.4,44.4,1368.4,46.7z"/>
	<path class="st0" d="M7.6,12.1L7.6,12.1c-0.9,0-1.9,0.2-2.7,0.6c-2,1.1-3.1,3-3.1,5.1v191.6c0,2.8,2.3,5.1,5.1,5.1h24.6v-92.3h36.7
		l0-27.1l0-1.9H31.5V41.8h36.8l0-29.7l-0.6-0.1L7.6,12.1z"/>
	<path class="st0" d="M773.7,103.2h-39.3c-1.5,0-2.8,1.2-2.8,2.6v13.6c0,1.5,1.3,2.8,2.8,2.8h3.4c1.2,0,1.4,1.1,1.4,2v57.5
		c0,1.3-1.2,2.3-2.7,2.3h-1.9c-1.5,0-2.7-1-2.7-2.3v-55.2H726c-0.8,0-1.4-0.5-1.4-1.1v-24.9c0-0.6,0.6-1.1,1.4-1.1h5.9V44.1
		c0-0.9,0.8-1.6,1.9-1.6h3.5c1,0,1.9,0.7,1.9,1.6v46.8c0,1.8,1.6,3.8,3.7,3.8h22.5c1.9,0,3.5-1.4,3.5-3.2V17.8
		c0-3.2-2.6-5.8-5.8-5.8h-55c-3.2,0-5.8,2.6-5.8,5.8v190.9c0,1.5,0.6,3,1.7,4.1c1.1,1.1,2.5,1.7,4.1,1.7c0,0,0,0,0,0h55c0,0,0,0,0,0
		c1.5,0,3-0.6,4.1-1.7c1.1-1.1,1.7-2.5,1.7-4.1v-85.2c0-0.7,0.6-1.4,1.4-1.4h3.4c1.5,0,2.7-1.2,2.7-2.7V106
		C776.4,104.4,775.2,103.2,773.7,103.2z"/>
	<polygon class="st0" points="1076.4,79.1 1069.2,12.7 1069.1,12.1 1039.4,12.1 1039.4,214.5 1069.2,214.5 1069.2,136.5 
		1076.5,214.5 1105.9,214.5 1105.9,12.1 1076.4,12.1 	"/>
	<path class="st0" d="M417.9,12.1c-3.2,0-5.8,2.6-5.8,5.8v24.7H431v171.9h29.7V42.6h18.1l0-29.7l0-0.8H417.9z"/>
</g>
</svg>
