<?xml version="1.0" encoding="utf-8"?>
<!-- Generator: Adobe Illustrator 25.2.0, SVG Export Plug-In . SVG Version: 6.00 Build 0)  -->
<svg version="1.1" id="Layer_1" xmlns="http://www.w3.org/2000/svg" xmlns:xlink="http://www.w3.org/1999/xlink" x="0px" y="0px"
	 viewBox="0 0 288 85.9" style="enable-background:new 0 0 288 85.9;" xml:space="preserve">
<style type="text/css">
	.st0{fill:#FFFFFF;}
</style>
<g>
	<path class="st0" d="M82.9,16.6c1.3,1.5,2.5,3,3.7,4.3c1.2,1.3,2,2.8,2,4.6c0,12.1,0,24.1,0,36.2c0,2.7-1.3,4.4-4.4,4.4
		c-18.9,0-37.8,0-56.7,0c-2.4,0-3.9-1.5-3.9-3.9c0-12.3,0-24.6,0-37c0-2.4,1.8-3.8,3.8-3.8c15.2,0.1,30.4,0,45.6,0.1
		c1.6,0,2.9,0,3.9-1.6c0.7-1.1,1.7-2.1,2.7-3.4c-0.9,0-1.4,0-1.9,0c-16.6,0-33.2,0-49.8,0c-2.2,0-4.3,0.5-6,2c-1.6,1.3-3,2.9-3,5
		c-0.1,13.2,0,26.4,0,39.6c0,1.5,0.2,2.8,1.1,3.9c0.5,0.7,1.2,1.2,1.8,1.8c1.2,1.3,2.6,2,4.3,2c20,0,40,0,60,0c3.4,0,7.1-3.6,7.1-7
		c0-13.4,0-26.7,0-40.1c0-0.5-0.1-1-0.2-1.4C92,19.3,88,15.7,82.9,16.6z"/>
	<path class="st0" d="M225.1,63.1c0-2.3,0-4.4,0-6.5c0-2.2,0-4.4,0-6.6c0-2.1,0-4.3,0-6.4c0-2.1,0-4.2,0.2-6.4
		c0.5,1.7,0.8,3.4,1.1,5.1c1.1,6.6,2.1,13.2,3.2,19.8c0.1,0.4,0.6,0.9,0.9,0.9c1.6,0.1,3.1,0,4.8,0c1.3-8.8,2.7-17.4,4-26.1
		c0.1,0,0.2,0,0.3,0c0,8.6,0,17.3,0,25.9c1.9,0,3.7,0,5.7,0c0-0.6,0-1,0-1.5c0-4.7,0-9.3,0-14c0-7,0-14,0-21c0-1.7,0-1.7-1.7-1.7
		c-1.7,0-3.4,0.1-5.1,0c-1.2-0.1-1.7,0.3-1.8,1.6c-0.1,1.5-0.3,2.9-0.6,4.4c-0.8,4.9-1.5,9.9-2.3,14.8c-0.3,2-0.6,3.9-0.9,5.9
		c-0.3-0.2-0.4-0.4-0.4-0.6c-0.4-2.5-0.7-5-1.1-7.6c-0.9-5.9-1.9-11.8-2.9-17.6c-0.1-0.3-0.5-0.8-0.7-0.8c-2.5-0.1-5,0-7.5,0
		c0,12.9,0,25.5,0,38.2C221.9,63.1,223.4,63.1,225.1,63.1z"/>
	<path class="st0" d="M77.2,21.3c1.4,0,1.1,0.9,1.1,1.6c0,10.7,0,21.5,0,32.2c0,0.5,0,0.9,0,1.4c-1.4,0.4-1.1-0.5-1.1-1.1
		c0-9.7,0-19.5,0-29.2c0-0.5,0-1,0-1.6c-1.8,0-3.4,0-5,0c-0.8,0-1.1,0.3-1.1,1.1c0,11.7,0,23.4,0,35.1c0,1.3,0.6,1.8,2,1.8
		c2.9,0,5.9,0,8.8,0c1.9,0,2.1-0.2,2.1-2.1c0-12.4,0-24.8,0-37.2c0-0.6,0-1.1,0-1.7c0.4-0.1,0.7-0.2,1.2-0.3c-1.4-1.7-2.7-3.3-4.1-5
		C79.8,18,78.6,19.5,77.2,21.3z"/>
	<path class="st0" d="M61.7,30.8c1-0.4,1.1,0.1,1.1,0.8c0,2.4,0,4.7,0,7.1c0,1.2,0.4,1.8,1.6,1.7c1-0.1,1.9-0.1,2.9,0
		c1,0.1,1.3-0.3,1.3-1.3c0-4.1-0.1-8.2,0-12.3c0-1.7-0.5-2.1-2.1-2.1c-2.8-0.1-5.6,0-8.4,0c-1.6,0-2.1,0.5-2.1,2.1
		c0,11.4,0,22.7,0,34.1c0,1.4,0.4,1.9,2,1.8c3,0,6,0,8.9,0c1.6,0,1.7-0.2,1.7-1.7c0-4.6,0-9.3,0-13.9c0-1,0.1-1.8,1.3-1.8
		c0-0.8-0.1-1.5,0-2.2c0.1-1.1-0.3-1.4-1.4-1.4c-1.8,0.1-3.6,0.1-5.4,0c-1.2-0.1-1.8,0.4-1.9,1.6c0,1.1-0.3,2.3,1.5,2.2
		c0,3.6,0,7,0,10.5c0,0.9-0.4,0.9-1.1,0.6c0-3.4,0-6.8,0-10.2c-0.1,0.1-0.2,0.2-0.3,0.2c-0.4-0.4-1.1-0.8-1.2-1.2
		c-0.2-1.2-0.1-2.5-0.1-3.7c0.6-0.1,1-0.1,1.6-0.2C61.7,37.7,61.7,34.3,61.7,30.8z"/>
	<path class="st0" d="M142.2,37.6c0-1.8,0.2-3.6,0-5.2c-0.2-1.4-0.5-2.9-1.2-4.2c-1.7-3.1-4.8-4-8.1-3.8c-1.6,0.1-3.3,0.6-4.7,1.4
		c-2.9,1.6-3.7,4.6-3.7,7.5c-0.1,7.1-0.1,14.2,0,21.3c0.1,3.2,1,6.3,4.3,7.9c1.1,0.5,2.3,0.8,3.5,1c2.9,0.4,6.8-0.5,8.7-3.6
		c2.1-3.5,1.2-7.2,1.4-10.9c-1.9,0-3.7,0-5.4,0c-0.1,0.2-0.1,0.2-0.1,0.3c0,1.7,0,3.3,0,5c-0.1,1.2-0.2,2.6-1.4,3.3
		c-1.9,1.2-5,0.4-5-2.7c0-7.4,0-14.8,0-22.1c0-1.8,0.9-2.9,2.5-3c2.2-0.2,3.1,0.4,3.6,2.4c0.2,0.8,0.2,1.6,0.2,2.4c0,1,0,2,0,2.9
		C138.6,37.6,140.3,37.6,142.2,37.6z"/>
	<path class="st0" d="M203.5,30.3c0.6,0,1.1,0,1.6,0c2.6,0,5.2,0,7.8,0c0.4,0,1.1-0.4,1.1-0.7c0.1-1.5,0.1-3.1,0.1-4.7
		c-5.1,0-9.9,0-14.8,0c-1.3,0-1.7,0.3-1.7,1.6c0.1,11.7,0,23.5,0,35.2c0,0.4,0,0.9,0.1,1.3c5.5,0,10.9,0,16.4,0c0-0.9,0-1.6,0-2.4
		c0-2.9,0-2.9-3-2.9c-2.4,0-4.9,0-7.4,0c0-3.8,0-7.5,0-11.4c2.8,0,5.5,0,8.2,0c0-1.8,0-3.4,0-5.1c-0.5,0-0.9-0.1-1.4-0.1
		c-2,0-3.9,0-5.9,0c-0.7,0-1.1-0.1-1.1-0.9C203.5,37,203.5,33.7,203.5,30.3z"/>
	<path class="st0" d="M260.9,42c-0.1,0-0.2,0-0.3,0c-1.4-5.4-2.8-10.7-4.3-16.1c-0.1-0.4-0.6-1-0.9-1c-1.8-0.1-3.6,0-5.4,0
		c0.1,0.5,0.1,0.7,0.2,1c1.8,5.9,3.6,11.7,5.2,17.6c0.9,3.3,2.3,6.5,2,10.1c-0.2,2.7,0,5.5,0,8.3c0,0.4,0,0.8,0,1.2c2.1,0,4,0,6,0
		c0-4,0-7.9,0-11.7c0-0.5,0.1-1,0.2-1.5c2.1-7.2,4.3-14.5,6.4-21.7c0.3-1,0.6-2.1,0.9-3.2c-2,0-3.8,0-5.6,0
		C263.9,30.6,262.4,36.3,260.9,42z"/>
	<path class="st0" d="M33.8,62.6c0-5.9,0-11.5,0-17.4c2.3,0,4.5,0,6.8,0c0-1.6,0-3.1,0-4.5c0-0.3-0.5-0.8-0.8-0.8
		c-1.9-0.1-3.9,0-5.8,0c0-3,0-6.1,0-9.2c1.9,0,3.8,0,5.6,0c0.7,0,1.1-0.1,1.1-0.9c0-1.4,0-2.7,0-4.1c0-0.6-0.2-1.1-1-1.1
		c-3.3,0-6.6,0-9.9,0c-1.5,0-1.7,0.3-1.7,1.9c0,11.4,0,22.8,0,34.2c0,0.3-0.1,0.7,0,0.9c0.3,0.4,0.7,0.9,1.1,1
		C30.6,62.7,32.1,62.6,33.8,62.6z"/>
	<path class="st0" d="M51.2,62.6c0-10.7,0-21.3,0-32c1.2,0,2.3,0,3.3,0c0-2,0-4,0-5.9c-3.8,0-7.4,0-11.1,0c-0.9,0-1.5,0.4-1.5,1.3
		c-0.1,1.5,0,3.1,0,4.8c1.2,0,2.3,0,3.6,0c0,10.7,0,21.3,0,31.9C47.4,62.6,49.2,62.6,51.2,62.6z"/>
	<path class="st0" d="M82.9,16.6c5.1-0.9,9.1,2.7,9.9,5.6c0.1,0.4,0.2,0.9,0.2,1.4c0,13.4,0,26.7,0,40.1c0,3.4-3.7,7-7.1,7
		c-20,0-40,0-60,0c-1.8,0-3.2-0.6-4.3-2c-0.6-0.6-1.3-1.2-1.8-1.8c-0.8-1.2-1.1-2.5-1.1-3.9c0-13.2,0-26.4,0-39.6c0-2.1,1.4-3.7,3-5
		c1.7-1.5,3.8-2,6-2c16.6,0,33.2,0,49.8,0c0.5,0,1,0,1.9,0c-1.1,1.3-2.1,2.2-2.7,3.4c-1,1.6-2.3,1.6-3.9,1.6
		c-15.2,0-30.4,0-45.6-0.1c-2,0-3.8,1.4-3.8,3.8c0,12.3,0,24.6,0,37c0,2.4,1.5,3.9,3.9,3.9c18.9,0,37.8,0,56.7,0
		c3.1,0,4.4-1.7,4.4-4.4c0.1-12.1,0-24.1,0-36.2c0-1.8-0.8-3.3-2-4.6C85.4,19.5,84.2,18.1,82.9,16.6z"/>
	<path class="st0" d="M225.1,63.1c-1.7,0-3.3,0-4.9,0c0-12.7,0-25.4,0-38.2c2.5,0,5,0,7.5,0c0.3,0,0.7,0.5,0.7,0.8
		c1,5.9,2,11.7,2.9,17.6c0.4,2.5,0.7,5,1.1,7.6c0,0.2,0.1,0.4,0.4,0.6c0.3-2,0.6-3.9,0.9-5.9c0.8-4.9,1.5-9.9,2.3-14.8
		c0.2-1.5,0.5-2.9,0.6-4.4c0.1-1.2,0.5-1.6,1.8-1.6c1.7,0.1,3.4,0,5.1,0c1.7,0,1.7,0,1.7,1.7c0,7,0,14,0,21c0,4.7,0,9.3,0,14
		c0,0.5,0,0.9,0,1.5c-1.9,0-3.7,0-5.7,0c0-8.7,0-17.3,0-25.9c-0.1,0-0.2,0-0.3,0c-1.3,8.7-2.6,17.3-4,26.1c-1.6,0-3.2,0.1-4.8,0
		c-0.3,0-0.8-0.6-0.9-0.9c-1.1-6.6-2.2-13.2-3.2-19.8c-0.3-1.7-0.6-3.4-1.1-5.1c-0.2,2.1-0.2,4.2-0.2,6.4c0,2.1,0,4.3,0,6.4
		c0,2.2,0,4.4,0,6.6C225.1,58.7,225.1,60.8,225.1,63.1z"/>
	<path class="st0" d="M172.9,25.1c3.9,0,7.8-0.2,11.6,0.1c3.6,0.3,5.9,2.7,6.4,6.3c0.2,1.2,0.3,2.4,0.3,3.6c0,6.4,0,12.8,0,19.1
		c0,1.9-0.4,3.8-1.4,5.5c-1.5,2.5-4,3.3-6.7,3.4c-3.4,0.2-6.7,0-10.2,0C172.9,50.4,172.9,37.7,172.9,25.1z M178.8,30.4
		c0,9.1,0,18.2,0,27.3c1.3,0,2.5,0,3.7,0c1.5-0.1,2.4-0.8,2.6-2.3c0.1-1.1,0.2-2.2,0.3-3.4c0-5.7,0-11.3,0-17c0-0.9-0.1-1.8-0.3-2.7
		c-0.2-1-0.8-1.9-2-1.9C181.7,30.3,180.3,30.4,178.8,30.4z"/>
	<path class="st0" d="M77.2,21.3c1.4-1.8,2.6-3.3,4-5c1.4,1.7,2.7,3.3,4.1,5c-0.5,0.1-0.8,0.2-1.2,0.3c0,0.6,0,1.2,0,1.7
		c0,12.4,0,24.8,0,37.2c0,1.9-0.2,2.1-2.1,2.1c-2.9,0-5.9,0-8.8,0c-1.4,0-2-0.5-2-1.8c0-11.7,0-23.4,0-35.1c0-0.8,0.2-1.1,1.1-1.1
		c1.6,0,3.2,0,5,0c0,0.6,0,1.1,0,1.6c0,9.7,0,19.5,0,29.2c0,0.6-0.3,1.5,1.1,1.1c0-0.4,0-0.9,0-1.4c0-10.7,0-21.5,0-32.2
		C78.3,22.2,78.6,21.3,77.2,21.3z"/>
	<path class="st0" d="M113.5,24.9c-3,0-5.9,0-8.8,0c-2,12.7-4.1,25.4-6.1,38.1c1.9,0,3.7,0,5.4,0c0.4-2.4,0.8-4.7,1.2-7
		c2.2,0,4.3,0,6.4,0c0.8,0,1.1,0.4,1.2,1.2c0.2,1.9,0.6,3.8,0.8,5.8c2,0,4,0,6,0C117.6,50.3,115.5,37.6,113.5,24.9z M105.8,51
		c1-6.3,1.9-12.5,2.9-18.7c0.1,0,0.2,0,0.3,0c0.9,6.2,1.8,12.4,2.8,18.7C109.8,51,107.9,51,105.8,51z"/>
	<path class="st0" d="M152.7,24.9c2.8,0,5.7,0,8.7,0c2,12.7,4.1,25.4,6.1,38.1c-2.1,0-4,0-5.9,0c-0.3-2.1-0.6-4.1-1-6.1
		c-0.1-0.4-0.6-0.9-0.9-0.9c-1.9-0.1-3.9,0-5.8-0.1c-1.2,0-1,0.9-1.2,1.5c-0.3,1.8-0.6,3.6-0.8,5.5c-1.8,0-3.6,0-5.4,0
		C148.6,50.4,150.6,37.7,152.7,24.9z M156.9,32.3c-0.1,0-0.2,0-0.3,0c-0.9,6.2-1.9,12.4-2.8,18.7c2,0,3.9,0,5.9,0
		C158.8,44.7,157.9,38.5,156.9,32.3z"/>
	<path class="st0" d="M61.7,30.8c0,3.5,0,6.9,0,10.5c-0.5,0.1-1,0.1-1.6,0.2c0,1.3-0.1,2.5,0.1,3.7c0.1,0.5,0.8,0.8,1.2,1.2
		c0.1-0.1,0.2-0.2,0.3-0.2c0,3.4,0,6.8,0,10.2c0.7,0.3,1.1,0.3,1.1-0.6c0-3.4,0-6.9,0-10.5c-1.8,0.2-1.5-1.1-1.5-2.2
		c0-1.2,0.7-1.6,1.9-1.6c1.8,0.1,3.6,0.1,5.4,0c1,0,1.5,0.3,1.4,1.4c-0.1,0.7,0,1.4,0,2.2c-1.3,0-1.3,0.8-1.3,1.8
		c0,4.6,0,9.3,0,13.9c0,1.6-0.2,1.7-1.7,1.7c-3,0-6,0-8.9,0c-1.5,0-2-0.5-2-1.8c0.1-11.4,0-22.7,0-34.1c0-1.6,0.5-2.1,2.1-2.1
		c2.8,0,5.6,0,8.4,0c1.7,0,2.2,0.4,2.1,2.1c-0.1,4.1-0.1,8.2,0,12.3c0,1-0.3,1.4-1.3,1.3c-1-0.1-1.9-0.1-2.9,0
		c-1.3,0.1-1.7-0.5-1.6-1.7c0.1-2.4,0-4.7,0-7.1C62.8,30.8,62.7,30.4,61.7,30.8z"/>
	<path class="st0" d="M142.2,37.6c-1.9,0-3.6,0-5.5,0c0-1,0-2,0-2.9c0-0.8-0.1-1.6-0.2-2.4c-0.4-2-1.3-2.6-3.6-2.4
		c-1.6,0.1-2.5,1.2-2.5,3c0,7.4,0,14.8,0,22.1c0,3.1,3,3.9,5,2.7c1.2-0.8,1.3-2.1,1.4-3.3c0.1-1.7,0-3.3,0-5c0-0.1,0.1-0.2,0.1-0.3
		c1.7,0,3.4,0,5.4,0c-0.2,3.7,0.7,7.4-1.4,10.9c-1.9,3.1-5.7,3.9-8.7,3.6c-1.2-0.1-2.4-0.5-3.5-1c-3.3-1.6-4.2-4.6-4.3-7.9
		c-0.2-7.1-0.1-14.2,0-21.3c0.1-3,0.8-6,3.7-7.5c1.4-0.8,3.1-1.3,4.7-1.4c3.3-0.2,6.4,0.7,8.1,3.8c0.7,1.2,1.1,2.8,1.2,4.2
		C142.4,34.1,142.2,35.8,142.2,37.6z"/>
	<path class="st0" d="M203.5,30.3c0,3.4,0,6.7,0,9.9c0,0.8,0.4,0.9,1.1,0.9c2,0,3.9,0,5.9,0c0.4,0,0.9,0,1.4,0.1c0,1.7,0,3.4,0,5.1
		c-2.7,0-5.4,0-8.2,0c0,3.9,0,7.6,0,11.4c2.5,0,4.9,0,7.4,0c3,0,3,0,3,2.9c0,0.8,0,1.6,0,2.4c-5.5,0-10.9,0-16.4,0
		c0-0.5-0.1-0.9-0.1-1.3c0-11.7,0-23.5,0-35.2c0-1.4,0.4-1.7,1.7-1.6c4.9,0.1,9.7,0,14.8,0c0,1.6,0.1,3.2-0.1,4.7
		c0,0.3-0.7,0.7-1.1,0.7c-2.6,0.1-5.2,0-7.8,0C204.6,30.3,204.2,30.3,203.5,30.3z"/>
	<path class="st0" d="M260.9,42c1.5-5.7,3-11.4,4.5-17.1c1.9,0,3.7,0,5.6,0c-0.3,1.1-0.6,2.1-0.9,3.2c-2.1,7.2-4.3,14.4-6.4,21.7
		c-0.1,0.5-0.2,1-0.2,1.5c0,3.9,0,7.8,0,11.7c-2,0-3.9,0-6,0c0-0.4,0-0.8,0-1.2c0-2.8-0.2-5.5,0-8.3c0.3-3.6-1.1-6.8-2-10.1
		c-1.7-5.9-3.5-11.7-5.2-17.6c-0.1-0.3-0.1-0.6-0.2-1c1.9,0,3.7,0,5.4,0c0.3,0,0.8,0.6,0.9,1c1.5,5.4,2.9,10.7,4.3,16.1
		C260.8,42,260.8,42,260.9,42z"/>
	<path class="st0" d="M33.8,62.6c-1.7,0-3.2,0.1-4.7,0c-0.4,0-0.8-0.6-1.1-1c-0.1-0.2,0-0.6,0-0.9c0-11.4,0-22.8,0-34.2
		c0-1.6,0.2-1.9,1.7-1.9c3.3,0,6.6,0,9.9,0c0.8,0,1,0.5,1,1.1c0,1.4,0,2.7,0,4.1c0,0.8-0.4,0.9-1.1,0.9c-1.8,0-3.7,0-5.6,0
		c0,3.1,0,6.2,0,9.2c1.9,0,3.9,0,5.8,0c0.3,0,0.8,0.5,0.8,0.8c0.1,1.5,0,2.9,0,4.5c-2.3,0-4.4,0-6.8,0
		C33.8,51.1,33.8,56.8,33.8,62.6z"/>
	<path class="st0" d="M51.2,62.6c-2,0-3.8,0-5.7,0c0-10.6,0-21.2,0-31.9c-1.3,0-2.4,0-3.6,0c0-1.7,0-3.2,0-4.8
		c0-0.9,0.6-1.3,1.5-1.3c3.7,0,7.3,0,11.1,0c0,2,0,3.9,0,5.9c-1,0-2.1,0-3.3,0C51.2,41.3,51.2,51.9,51.2,62.6z"/>
</g>
</svg>
